<svg width="256" height="256" viewBox="0 0 256 256" fill="none" xmlns="http://www.w3.org/2000/svg">
<rect width="256" height="256" rx="32" fill="#333333"/>
<rect x="32" y="48" width="192" height="48" rx="7" fill="#EEEEEE"/>
<rect x="36" y="116" width="184" height="104" rx="12" stroke="#EEEEEE" stroke-width="8"/>
<rect x="62" y="30" width="20" height="36" rx="6" fill="#EEEEEE" stroke="#333333" stroke-width="4"/>
<rect x="174" y="30" width="20" height="36" rx="6" fill="#EEEEEE" stroke="#333333" stroke-width="4"/>
<path d="M72.6484 177.461L79.4453 149.875H83.125L83.3594 155.688L76.0938 184H72.2031L72.6484 177.461ZM68.3594 149.875L73.9375 177.367V184H69.6953L61.9609 149.875H68.3594ZM90.4141 177.25L95.8984 149.875H102.32L94.5859 184H90.3438L90.4141 177.25ZM84.8828 149.875L91.6797 177.555L92.0781 184H88.1875L80.9453 155.664L81.2266 149.875H84.8828ZM131.416 178.938V184H113.275V178.938H131.416ZM115.244 149.875V184H108.798V149.875H115.244ZM129.048 163.961V168.906H113.275V163.961H129.048ZM131.345 149.875V154.961H113.275V149.875H131.345ZM160.909 178.938V184H142.769V178.938H160.909ZM144.738 149.875V184H138.292V149.875H144.738ZM158.542 163.961V168.906H142.769V163.961H158.542ZM160.839 149.875V154.961H142.769V149.875H160.839ZM174.231 149.875V184H167.786V149.875H174.231ZM194.716 149.875L181.028 166.516L173.2 174.883L172.052 168.625L177.489 161.57L186.817 149.875H194.716ZM187.544 184L176.927 168.016L181.544 163.844L195.208 184H187.544Z" fill="#EEEEEE"/>
</svg>